<?xml version="1.0" encoding="utf-8"?>
<!-- Generator: Adobe Illustrator 17.0.0, SVG Export Plug-In . SVG Version: 6.00 Build 0)  -->
<!DOCTYPE svg PUBLIC "-//W3C//DTD SVG 1.1//EN" "http://www.w3.org/Graphics/SVG/1.1/DTD/svg11.dtd">
<svg version="1.1" id="Layer_1" xmlns="http://www.w3.org/2000/svg" xmlns:xlink="http://www.w3.org/1999/xlink" x="0px" y="0px"
	 width="1000px" height="1000px" viewBox="0 0 1000 1000" enable-background="new 0 0 1000 1000" xml:space="preserve">
<g id="qsK3ze_1_">
	<g>
		<path fill="#32231D" d="M852.496,776.559c-1.013-3.525-1.909-6.64-2.866-9.971c-3.936-1.404-8.329-2.812-12.582-4.561
			c-1.804-0.742-3.869-1.841-4.863-3.389c-4.378-6.815-10.54-7.633-17.819-6.466c-2.681,0.43-5.759,0.002-8.338-0.923
			c-4.262-1.529-6.706-0.391-9.549,3.121c-27.089,33.454-59.105,61.34-95.714,83.992c-2.748,1.7-4.952,4.295-7.358,6.528
			c-2.917,2.708-5.347,6.381-8.763,8.016c-6.097,2.918-9.453,7.712-12.906,13.123c-8.222,12.887-19.492,21.731-35.212,23.72
			c-0.496,0.063-1.034,0.276-1.482,0.156c-8.379-2.246-15.256,1.883-22.635,4.774c-12.039,4.717-24.045,4.373-35.488-2.559
			c-1.47-0.891-3.679-0.824-5.534-0.77c-6.754,0.196-13.502,0.574-20.253,0.884c-9.119,0.419-18.244,0.732-27.355,1.275
			c-43.66,2.605-86.426-2.525-128.396-14.667c-1.598-0.462-3.17-1.015-4.771-1.463c-5.939-1.659-10.853-1.676-16.185,3.273
			c-9.276,8.611-20.592,12.594-33.64,9.233c-1.536-0.396-3.785,0.556-5.254,1.549c-12.799,8.645-26.093,12.268-40.86,4.992
			c-1.216-0.599-3.228-0.203-4.649,0.327c-15.938,5.939-30.642,4.932-43.639-7.167c-1.041-0.97-2.964-1.37-4.485-1.389
			c-17.706-0.216-31.58-6.961-40.257-23.008c-0.69-1.276-2.301-2.327-3.72-2.893c-15.806-6.31-26.784-16.955-31.203-33.807
			c-0.446-1.701-1.909-3.466-3.386-4.515c-17.175-12.196-26-28.878-27.364-49.769c-0.132-2.017-1.091-4.127-2.142-5.914
			c-7.818-13.294-10.943-27.452-7.675-42.656c1.801-8.38,5.959-15.48,13.127-20.562c0.932-0.661,2.067-1.419,2.461-2.393
			c3.866-9.566,10.286-16.983,18.277-21.954c-6.784-18.129-13.859-35.534-19.81-53.314c-7.734-23.106-12.076-47.023-15.068-71.197
			c-0.281-2.268-1.909-4.935-3.737-6.356c-13.148-10.227-26.513-20.176-39.799-30.226c-1.292-0.977-2.515-2.045-4.092-3.334
			c1.566-1.287,2.778-2.355,4.063-3.328c13.285-10.051,26.642-20.01,39.802-30.222c1.719-1.334,3.282-3.863,3.506-5.987
			c8.11-76.843,36.476-145.292,86.02-204.522c57.043-68.194,129.453-111.306,216.59-129.325c11.878-2.456,24.027-3.575,35.989-5.665
			c2.459-0.43,5.348-1.885,6.842-3.8c10.853-13.917,21.4-28.074,32.511-42.772c1.226,1.486,2.257,2.646,3.191,3.88
			c9.956,13.148,19.815,26.372,29.941,39.388c1.317,1.693,3.905,3.138,6.038,3.349c154.474,15.297,286.635,127.703,326.621,278.759
			c5.426,20.497,7.614,41.844,11.57,62.747c0.464,2.454,2.146,5.226,4.114,6.759c13.122,10.229,26.476,20.162,40.177,30.511
			c-1.36,1.202-2.367,2.217-3.495,3.071c-11.818,8.954-23.575,17.991-35.535,26.75c-3.596,2.633-5.386,5.406-5.89,10.088
			c-4.49,41.706-15.525,81.637-33.427,119.624c-0.637,1.352-1.205,2.737-1.892,4.305c3.748,4.115,7.265,7.253,13.831,7.92
			c18.556,1.885,31.345,12.54,39.145,29.416c1.208,2.614,2.997,5.172,5.101,7.128c16.938,15.741,23.266,43.77,14.944,65.439
			c-3.506,9.13-9.427,16.027-18.386,19.269c-15.293,5.533-30.885,10.263-46.444,15.029c-4.109,1.259-6.567-0.931-7.221-5.798
			C843.224,803.458,843.788,789.01,852.496,776.559z M442.436,769.65c2.845-2.616,5.422-5.213,8.233-7.525
			c6.462-5.315,13.739-8.899,22.29-8.698c3.197,0.075,5.104-1.012,7.143-3.358c7.88-9.068,17.179-15.896,29.844-15.872
			c3.346,0.007,5.422-0.993,7.614-3.433c8.68-9.663,18.992-16.038,32.659-15.527c1.752,0.065,3.92-1.408,5.309-2.768
			c9.004-8.809,19.063-15.175,32.265-14.199c3.262,0.241,5.542-0.559,7.954-2.797c9.444-8.763,20.373-13.544,33.636-12.03
			c2.271,0.259,5.182-0.452,7.017-1.787c10.221-7.437,21.135-12.251,33.984-9.121c3.972,0.968,6.836,0.316,10.188-1.704
			c11.432-6.89,23.446-8.989,36.255-3.672c1.5,0.623,3.882,0.102,5.485-0.664c8.405-4.018,17.343-5.186,26.312-3.868
			c5.707,0.838,11.052,4.712,16.714,5.13c5.935,0.439,12.066-2.426,18.09-2.342c4.865,0.068,6.913-1.483,8.91-5.612
			c37.005-76.503,43.946-155.743,20.267-237.188c-44.916-154.488-201.555-253.399-360.22-227.509
			c-102.147,16.667-179.595,70.584-231.756,159.552c-38.165,65.096-49.921,135.901-38.88,210.484
			c5.44,36.747,17.254,71.383,34.811,104.103c1.565,2.916,3.173,4.359,6.801,4.442c7.614,0.173,14.969,2.207,20.701,7.464
			c3.223,2.957,6.321,3.319,10.368,2.886c12.586-1.344,23.861,1.856,32.585,11.434c2.303,2.528,4.49,3.214,7.726,3.199
			c12.558-0.058,23.71,3.649,31.75,13.846c2.106,2.671,4.203,3.649,7.484,3.69c12.69,0.158,23.242,4.823,31.186,15.081
			c1.047,1.352,3.58,2.122,5.453,2.174c13.17,0.37,24.393,4.495,32.624,15.4c1.054,1.396,3.531,2.288,5.41,2.4
			c13.171,0.786,24.257,5.395,32.052,16.524C441.152,768.435,441.783,768.959,442.436,769.65z M203.229,675.974
			c-81.987-154.097-31.962-331.619,88.051-426.233c120.63-95.101,288.421-97.809,412.542-6.79
			c122.493,89.825,181.214,269.088,99.54,428.173c4.572,4.746,11.417,3.66,14.305-2.396
			c38.043-79.753,46.087-162.573,22.638-247.633c-49.71-180.319-232.18-289.284-414.713-248.557
			c-153.965,34.353-266.668,168.892-273.433,326.88c-2.594,60.569,9.533,118.191,36.708,172.517
			C192.152,678.5,196.103,679.676,203.229,675.974z M732.257,744.686c-5.519-1.691-9.335-2.369-12.664-4.026
			c-2.968-1.477-5.01-1.13-7.716,0.502c-8.973,5.414-18.583,8.387-29.008,4.899c-3.236-1.083-5.366-0.747-8.086,1.307
			c-8.015,6.054-16.93,10.552-27.258,8.414c-4.711-0.975-7.485,0.033-10.934,3.017c-7.722,6.679-16.545,11.36-27.267,9.745
			c-3.346-0.504-5.455,0.245-7.809,2.66c-8.431,8.647-18.158,14.528-30.968,13.139c-1.216-0.132-2.961,0.628-3.793,1.566
			c-9.035,10.196-19.394,17.577-32.958,16.419c4.732,2.987,10.246,5.911,15.05,9.728c2.553,2.029,4.567,2.496,7.564,1.933
			c10.319-1.938,20.164-1.248,28.942,5.526c1.115,0.86,3.682,0.706,5.169,0.07c8.13-3.477,16.211-5.956,25.097-2.6
			c1.073,0.405,3.497-0.767,4.275-1.906c4.682-6.85,10.978-10.07,19.261-10.741c5.653-0.458,11.861-1.219,16.64-3.928
			c13.148-7.452,26.148-15.356,38.317-24.291C707.067,766.606,719.003,755.706,732.257,744.686z M898.989,738.187
			c-0.545,1.431-1.041,2.307-1.212,3.243c-3.601,19.748-14.372,33.509-33.465,40.487c-1.595,0.583-3.195,1.905-4.168,3.315
			c-5.281,7.648-5.646,16.244-4.947,25.151c9.853-1.153,35.14-9.57,43.149-14.451c2.23-1.359,4.564-2.969,6.066-5.034
			C914.239,777.378,911.609,750.56,898.989,738.187z M668.672,737.191c-0.472-0.832-0.7-1.468-1.117-1.936
			c-8.739-9.798-17.509-19.569-26.253-29.364c-5.516-6.179-11.107-12.465-20.622-10.036c-4.1,1.047-8.204,2.65-11.845,4.787
			c-5.855,3.437-5.691,4.094-0.534,8.31c1.669,1.365,3.181,2.925,4.744,4.418c8.419,8.045,16.481,16.51,25.341,24.035
			C648.135,745.686,658.244,745.304,668.672,737.191z M772.361,679.375c2.574,5.635,4.801,10.579,7.085,15.497
			c5.215,11.229,10.054,22.658,15.811,33.604c5.2,9.888,13.274,13.008,24.291,10.727c0-0.618,0.171-1.318-0.025-1.893
			c-5.75-16.863-11.486-33.731-17.4-50.536c-0.554-1.575-2.081-2.979-3.469-4.061C790.886,676.658,782.255,676.726,772.361,679.375z
			 M630.916,747.56c-2.669-2.403-5.173-4.548-7.555-6.821c-8.771-8.368-17.361-16.93-26.284-25.131
			c-9.422-8.659-25.509-5.734-31.937,5.846c2.434,2.078,4.906,4.238,7.431,6.334c9.686,8.037,19.052,16.515,29.184,23.946
			C611.427,758.826,624.073,756.704,630.916,747.56z M556.666,778.878c-12.121-9.426-24.87-18.204-36.222-28.519
			c-9.569-8.694-26.962-0.822-30.933,8.194c7.931,6.111,15.786,12.452,23.957,18.356c5.217,3.769,10.744,7.184,16.412,10.237
			C538.8,791.951,552.893,787.328,556.666,778.878z M483.859,816.544c-2.863-1.899-5.545-3.494-8.026-5.356
			c-9.931-7.456-19.958-14.797-29.634-22.574c-6.142-4.936-12.443-4.918-18.995-1.849c-3.085,1.445-5.767,3.792-8.538,5.856
			c-2.805,2.089-2.904,4.054,0.242,6.159c2.741,1.834,5.135,4.179,7.795,6.146c8.905,6.586,17.419,13.852,26.913,19.449
			C464.246,830.643,475.752,827.218,483.859,816.544z M502.707,807.922c5.651,0.486,10.757-3.156,15.586-7.352
			c2.054-1.785,2.064-3.434-0.353-5.193c-12.45-9.06-24.77-18.299-37.283-27.269c-1.87-1.34-4.482-2.066-6.818-2.258
			c-8.152-0.669-14.212,3.511-19.566,9.096c-1.929,2.012-1.242,3.356,0.724,4.839c8.198,6.186,16.163,12.695,24.535,18.631
			C486.101,803.073,492.743,808.001,502.707,807.922z M294.56,764.568c0.068-0.73,0.331-1.558,0.188-2.31
			c-2.668-14.074-4.884-28.259-8.233-42.17c-3.218-13.364-10.102-23.677-25.826-24.411c-4.335-0.202-5.258,0.425-4.184,4.433
			c4.256,15.875,9.076,31.635,12.458,47.696C271.624,760.435,284.786,765.929,294.56,764.568z M445.887,836.011
			c-12.921-10.274-25.377-20.417-38.156-30.134c-2.533-1.926-6.253-2.821-9.526-3.13c-6.347-0.6-11.387,2.828-16.149,6.604
			c-2.689,2.132-2.265,3.924,0.128,6.039c7.218,6.379,14.054,13.223,21.569,19.222c5.109,4.078,10.831,7.652,16.777,10.356
			C429.311,848.962,442.518,843.377,445.887,836.011z M661.365,860.251c-1.243-0.599-1.787-0.993-2.391-1.134
			c-10.213-2.382-19.176-7.237-27.249-13.811c-5.539-4.51-10.68-9.602-16.614-13.498c-3.316-2.178-8.017-3.722-11.863-3.323
			c-9.274,0.961-9.605,1.759-4.673,9.627c7.114,11.349,14.74,22.382,22.317,33.433c3.151,4.596,7.909,6.704,13.395,6.127
			C645.921,876.45,654.668,870.493,661.365,860.251z M611.518,880.77c-4.175-5.991-8.375-11.541-12.061-17.415
			c-6.251-9.963-11.795-20.388-18.362-30.13c-5.159-7.652-13.58-9.6-23.426-6.239c6.902,16.838,13.726,33.652,20.755,50.38
			c0.712,1.695,2.463,3.161,4.064,4.24C590.015,886.679,603.374,886.297,611.518,880.77z M782.862,731.24
			c-6.865-15.07-13.345-29.935-20.376-44.535c-6.053-12.57-20.16-16.212-32.411-8.75c0.362,0.868,0.656,1.809,1.124,2.653
			c5.065,9.132,10.042,18.316,15.282,27.347c3.407,5.87,6.84,11.79,10.919,17.191C763.45,733.161,773.513,735.449,782.862,731.24z
			 M565.885,880.531c-3.286-8.554-5.792-15.341-8.494-22.05c-4.62-11.469-8.893-23.112-14.223-34.247
			c-3.454-7.217-13.607-11.345-22.204-8.522c4.696,16.978,9.44,33.969,14.08,50.989c1.763,6.469,6.411,10.265,12.327,11.803
			C552.821,879.922,558.668,879.814,565.885,880.531z M702.618,676.004c-3.921,1.153-7.86,2.25-11.759,3.475
			c-3.754,1.179-4.608,3.043-1.876,6.442c4.368,5.434,8.37,11.16,12.555,16.742c5.177,6.906,10.077,14.052,15.671,20.604
			c4.702,5.507,10.838,8.576,18.549,7.651c9.123-1.094,9.41-1.487,4.761-9.47c-0.25-0.43-0.474-0.876-0.721-1.307
			c-6.515-11.367-12.977-22.766-19.569-34.089C716.383,679.448,710.676,676.078,702.618,676.004z M257.775,749.148
			c-0.773-3.466-1.374-7.021-2.369-10.462c-3.664-12.679-6.473-25.725-11.467-37.867c-5.542-13.473-18.685-17.927-33.179-12.888
			c1.873,2.618,4.195,4.907,5.38,7.682c5.832,13.659,11.591,27.359,16.924,41.219C236.963,746.965,246.41,752.141,257.775,749.148z
			 M369.399,799.271c-0.148-1.768-0.176-3.225-0.404-4.65c-1.178-7.364-1.998-14.817-3.713-22.055
			c-2.541-10.723-4.928-21.603-8.889-31.832c-3.352-8.656-12.893-12.77-21.388-11.452c2.827,16.93,5.618,33.865,8.491,50.787
			C345.611,792.523,355.944,800.394,369.399,799.271z M644.975,691.939c3,3.283,5.794,6.331,8.579,9.388
			c8.492,9.32,16.524,19.12,25.607,27.823c8.12,7.78,19.181,7.556,27.396,0.59c-9.696-12.944-19.134-26.142-29.222-38.821
			C669.515,681.088,653.735,681.718,644.975,691.939z M331.653,781.702c-1.116-7.375-1.946-14.412-3.285-21.351
			c-2.098-10.869-3.818-21.89-7.029-32.442c-3.535-11.615-13.623-17.533-24.89-16.252c-0.02,0.45-0.134,0.932-0.047,1.375
			c3.197,16.228,6.267,32.482,9.669,48.667C308.972,775.499,316.86,781.73,331.653,781.702z M526.525,739.014
			c5.775,4.654,11.176,9.281,16.866,13.522c7.568,5.641,14.963,11.696,23.161,16.265c9.816,5.47,20.472,2.37,26.827-6.344
			c-0.106-0.31-0.117-0.734-0.332-0.914c-12.759-10.649-25.493-21.328-38.368-31.835c-1.4-1.142-3.587-1.654-5.465-1.819
			C539.701,727.051,532.76,731.647,526.525,739.014z M851.254,753.293c0.792-17.773-0.685-34.791-5.211-51.603
			c-1.669-6.199-5.338-10.157-10.645-12.987c-6.241-3.328-12.902-3.489-20.171-2.418c0.478,1.745,0.8,3.151,1.246,4.517
			c3.026,9.257,6.055,18.513,9.129,27.755c2.345,7.051,4.406,14.225,7.233,21.081C836.031,747.383,841.165,753.215,851.254,753.293z
			 M407.497,854.329c-11.311-10.09-22.573-20.099-33.791-30.155c-9.067-8.128-17.187-8.486-27.233-1.437
			c-3.157,2.215-3.968,3.935-0.875,6.926c4.297,4.156,7.956,9.003,12.43,12.937c7.434,6.536,14.765,13.451,23.132,18.592
			C389.869,866.545,403.069,862.161,407.497,854.329z M237.835,875.209c-6.623-17.908-7.008-36.127-7.087-54.368
			c-0.045-10.339-4.371-16.642-15.229-20.964c-0.841,3.723-1.695,7.336-2.471,10.966c-2.773,12.979-5.461,25.927-3.537,39.377
			C211.59,864.763,222.713,875.091,237.835,875.209z M368.2,870.482c-11.43-11.871-22.92-22.942-33.355-34.931
			c-7.607-8.739-17.993-7.29-25.056-2.887c-0.954,0.595-1.751,3.305-1.218,4.144c8.007,12.606,15.744,25.477,27.334,35.291
			C346.06,880.698,361.281,879.575,368.2,870.482z M242.489,823.058c0,4.089-0.191,8.219,0.036,12.326
			c0.653,11.785,1.706,23.526,5.997,34.684c5.711,14.85,20.088,21.535,34.256,15.81c-0.264-0.754-0.371-1.633-0.824-2.265
			c-10.339-14.433-15.192-31.205-20.266-47.847C258.88,826.557,252.738,822.17,242.489,823.058z M327.596,881.884
			c-12.639-12.233-21.703-26.75-30.727-41.301c-4.608-7.431-12.391-10.379-20.627-7.557c-1.106,0.379-2.546,2.848-2.232,3.849
			c4.417,14.092,9.102,28.128,18.076,40.15C301.029,889.006,316.359,891.242,327.596,881.884z M859.058,700.942
			c-0.218,1.147-0.474,1.66-0.374,2.089c4.796,20.595,5.29,41.394,3.126,62.343c-0.32,3.102,1.362,4.202,4.382,3.254
			c15.328-4.807,27.689-31.001,21.4-46.028C882.376,710.136,872.706,703.131,859.058,700.942z M197.217,848.124
			c0-5.226-0.647-10.129,0.123-14.799c2.184-13.237,4.805-26.409,7.545-39.546c1.346-6.454,0.095-12.214-3.413-17.54
			c-3.764-5.716-6.759-5.877-10.565-0.313c-9.689,14.164-13.763,30.131-13.195,47.066
			C178.094,834.402,187.121,845.373,197.217,848.124z M196.808,742.852c0.332-0.506,0.664-1.012,0.997-1.518
			c-3.177-3.671-6.148-7.548-9.571-10.973c-7.989-7.992-16.935-14.492-28.588-15.921c-7.475-0.917-14.227,0.482-19.314,6.698
			c-7.427,9.075-5.557,28.226,0.531,35.366c2.171-2.522,4.104-5.21,6.469-7.441c11.973-11.298,26.236-11.294,41.099-8.044
			C191.223,741.629,194.016,742.241,196.808,742.852z M692.414,822.203c-15.695-2.196-30.542-4.531-45.464-6.195
			c-4.145-0.462-8.568,0.81-12.762,1.745c-4.814,1.073-8.151,7.054-5.304,9.131c7.477,5.457,14.776,11.542,23.072,15.364
			c6.146,2.832,14.132,4.444,20.614,3.156C683.547,843.224,689.008,834.075,692.414,822.203z M166.071,810.856
			c0.481-2.2,0.944-4.235,1.371-6.278c3.403-16.302,8.068-31.994,21.508-43.282c2.273-1.909,2.242-4.145,0.118-5.285
			c-3.034-1.629-6.541-3.011-9.927-3.227c-10.247-0.656-19.981,0.698-26.752,9.868C143.027,775.332,150.341,802.095,166.071,810.856
			z M156.03,700.179c3.036,0.493,5.49,0.722,7.856,1.304c19.48,4.786,32.433,17.943,43.122,33.903
			c4.999,7.465,4.909,7.526,14.146,4.454c0.027-0.586,0.268-1.311,0.055-1.86c-3.875-10.022-7.098-20.376-11.882-29.949
			c-7.722-15.452-21.005-22.075-36.206-19.172C166.123,690.195,160.284,693.55,156.03,700.179z M674.928,806.832
			c9.55,2.704,17.17,3.978,25.786-2.372c22.183-16.348,43.083-33.966,61.664-54.314c1.291-1.413,2.499-2.901,3.959-4.603
			c-4.032-1.739-7.486-3.229-11.263-4.857C731.957,766.556,705.393,788.459,674.928,806.832z M510.19,819.216
			c-2.929,0.582-4.854,1.095-6.812,1.317c-1.968,0.224-3.97,0.214-5.956,0.208c-4.183-0.013-8.308,4.755-7.48,8.892
			c1.428,7.137,2.859,14.277,4.517,21.363c2.944,12.586,15.332,20.08,28.279,16.944C518.595,851.852,514.454,835.774,510.19,819.216
			z M275.993,819.365c-1.627-1.305-3.032-2.361-4.36-3.506c-11.076-9.549-22.575-18.661-33.079-28.803
			c-10.265-9.912-19.475-20.913-29.254-31.336c-1.052-1.122-2.817-1.576-4.251-2.339c-0.711,1.667-1.822,3.294-1.994,5.015
			c-0.12,1.194,0.78,2.775,1.693,3.74c5.152,5.443,8.722,11.736,10.219,19.058c0.631,3.083,2.159,4.786,4.932,6.186
			c8.374,4.227,14.978,10.299,19.031,19.011c0.637,1.369,2.813,2.637,4.417,2.837c7.438,0.927,14.817,2.609,19.693,8.432
			C267.091,822.498,270.82,821.733,275.993,819.365z M381.035,794.838c7.111-1.777,14.073-3.516,21.417-5.351
			c-1.381-10.387-2.369-21.165-7.461-30.914c-4.48-8.577-13.796-13.232-22.792-11.803
			C375.155,762.849,378.11,778.925,381.035,794.838z M256.184,763.626c9.939,12.605,53.752,46.856,67.215,52.65
			c7.568,3.257,9.646,2.762,15.269-3.642c-7.633-4.727-15.402-9.25-22.861-14.238c-7.609-5.087-14.808-10.785-22.392-15.912
			c-4.06-2.745-8.611-4.752-12.833-7.273c-4.388-2.62-9.356-4.787-12.766-8.387C264.304,763.116,261.026,762.095,256.184,763.626z
			 M457.767,840.765c3.786,8.549,15.203,14.116,24.923,11.709c-1.197-5.516-2.396-11.043-3.445-15.878
			C471.665,838.068,464.694,839.421,457.767,840.765z M409.817,763.747c1.253,6.254,2.333,11.643,3.495,17.443
			c5.444-2.81,10.474-5.407,15.903-8.209C424.508,766.465,417.887,764.786,409.817,763.747z M449.171,850.325
			c-4.521,2.654-9.238,5.422-14.912,8.752c10.672,1.567,20.236,2.972,30.431,4.469C459.024,858.719,454.163,854.578,449.171,850.325
			z"/>
		<path fill="#32231D" d="M475.697,492.492c2.371,4.394,4.856,8.286-0.036,12.364c-1.011,0.842-1.447,2.633-1.694,4.065
			c-0.296,1.714-0.106,3.512-0.126,5.274c1.699-0.026,3.479,0.271,5.081-0.136c5.244-1.334,10.423-2.924,15.701-4.436
			c-0.803-4.901-3.303-7.44-7.605-8.628c-4.074-1.125-7.46-10.537-5.258-14.089c1.927-3.108,3.887-6.197,5.821-9.278
			c7.215,1.443,10.612,5.382,10.726,12.327c0.022,1.323-0.228,2.887,0.375,3.913c1.104,1.878,2.75,3.437,4.17,5.129
			c1.387-1.252,2.997-2.333,4.114-3.792c2.409-3.144,4.595-6.462,6.816-9.747c2.214-3.274,1.4-5.466-2.569-5.739
			c-3.017-0.208-6.102,0.569-9.241,0.916c-3.47-2.781-7.193-5.765-11.244-9.012c1.563-3.626,3.153-7.606,5.023-11.449
			c0.48-0.986,1.752-2,2.819-2.216c5.261-1.065,11.706,3.163,13.219,8.206c1.162,3.875,2.657,7.631,8.24,7.955
			c2.057-6.523,4.114-13.046,6.217-19.711c-5.594-2.391-9.451-0.164-12.799,2.89c-4.891-1.595-9.583-3.124-14.689-4.789
			c1.366-4.993,2.804-10.379,4.349-15.734c0.199-0.69,0.824-1.461,1.461-1.788c4.617-2.377,12.907,0.709,15.13,5.317
			c1.553,3.219,3.763,5.905,8.478,5.892c1.455-6.645,2.92-13.338,4.442-20.29c-6.469-1.597-10.407,1.099-13.092,5.572
			c-4.981-0.599-9.551-1.149-14.119-1.703c0.472-14.738,0.17-19.164,13.061-28.836c1.099,1.687,2.054,3.945,3.681,5.499
			c4.585,4.38,12.3,4.73,17.501,1.133c5.305-3.669,7.389-10.401,5.2-16.795c-2.096-6.122-8.135-9.656-15.468-9.051
			c-5.652,0.467-10.799,5.631-12.068,11.585c-0.354,1.659-1.615,3.345-2.905,4.536c-2.284,2.11-4.91,3.851-7.665,5.955
			c-0.867-3.79-1.491-7.483-2.57-11.037c-2.524-8.316-7.511-14.02-16.755-14.829c-0.329-0.029-0.653-0.131-0.977-0.208
			c-4.699-1.121-10.128-1.766-11.297-7.481c-1.235-6.038,3.269-9.481,7.666-12.322c10.498-6.783,22.425-9.032,34.471-7.794
			c11.822,1.215,23.578,3.877,35.112,6.871c12.242,3.177,24.201,7.469,37.063,7.363c14.499-0.119,21.059-7.609,19.231-22.03
			c-0.774-6.105-2.102-12.15-2.669-18.27c-0.515-5.564,1.973-7.533,6.796-4.836c4.664,2.608,9.261,6.069,12.579,10.206
			c9.12,11.37,13.67,25.031,17.459,38.902c4.802,17.583,7.259,35.532,8.122,53.724c0.083,1.745,0.432,3.759,1.391,5.138
			c11.163,16.048,15.616,34.408,18.491,53.29c1.044,6.858,1.578,13.793,2.301,20.302c-14.709,2.246-28.758,3.804-42.551,6.617
			c-29.795,6.076-57.802,17.412-84.397,31.865c-25.621,13.924-50.659,28.928-75.844,43.645
			c-39.705,23.201-80.954,26.824-123.846,10.08c-1.74-0.679-3.753-2.457-4.284-4.148c-3.588-11.433-4.793-23.186-2.727-35.038
			c3.206-18.392,14.243-30.758,30.786-38.573c17.404-8.222,36.064-10.363,54.977-10.771
			C442.809,504.086,459.788,501.724,475.697,492.492z"/>
		<path fill="#32231D" d="M678.402,569.574c-4.505,0.609-8.297,1.035-12.059,1.651c-4.784,0.783-8.043-0.655-9.445-5.622
			c-0.655-2.32-1.778-4.508-3.423-6.563c0,2.217-0.02,4.434,0.004,6.651c0.065,6.169-0.53,6.89-6.509,7.381
			c-3.32,0.272-6.679,0.214-9.969,0.674c-2.819,0.394-3.864-0.786-4.427-3.308c-0.607-2.718-1.562-5.359-2.371-8.051
			c-0.598,0.212-1.017,0.258-1.044,0.385c-2.237,10.661-2.235,10.661-13.176,11.845c-1.325,0.143-2.683,0.141-3.97,0.445
			c-4.642,1.096-7.166-0.631-7.972-5.366c-0.352-2.066-1.357-4.02-2.832-6.01c-0.261,2.155-0.528,4.31-0.781,6.466
			c-0.25,2.135-0.486,4.272-0.733,6.456c-0.54,0.234-0.967,0.444-1.411,0.609c-9.6,3.557-17.286,2.377-21.173-8.458
			c-0.282-0.785-1.199-1.342-3.038-1.614c0.573,3.431,1.035,6.885,1.751,10.286c0.704,3.343,0.419,5.474-3.687,6.414
			c-6.145,1.406-12.218,3.311-18.118,5.54c-3.797,1.435-5.664,0.293-7.621-2.88c-3.471-5.628-7.36-10.998-11.33-16.853
			c-10.143,6.245-19.896,12.24-29.638,18.253c-2.692,1.661-5.193,3.738-8.057,4.995c-9.097,3.992-13.717,10.26-11.555,20.528
			c0.503,2.389-0.441,3.948-2.978,4.864c-4.667,1.685-9.197,3.753-14.046,5.771c-2.21-3.371-4.285-6.535-6.605-10.073
			c-7.388,3.21-1.199,9.689-4.207,14.415c-4.424,1.467-9.567,3.337-14.828,4.778c-1.061,0.29-2.974-0.716-3.786-1.705
			c-1.744-2.124-3.026-4.626-4.758-7.391c-1.154,4.161-1.098,9.334-3.291,10.595c-3.215,1.848-8.037,0.955-12.179,1.115
			c-2.81,0.109-5.627,0.021-8.844,0.021c-0.481-2.856-0.808-5.629-1.48-8.316c-0.221-0.882-1.336-1.54-2.042-2.301
			c-0.714,0.703-1.825,1.289-2.07,2.129c-0.826,2.829-1.345,5.748-1.987,8.658c-5.454,0-10.608-0.138-15.751,0.049
			c-3.327,0.122-4.898-1.05-5.035-4.479c-0.084-2.111-0.771-4.198-1.188-6.296c-0.51-0.196-1.019-0.393-1.529-0.589
			c-1.617,3.255-3.234,6.51-4.883,9.83c-13.369,0.761-14.018,0.383-17.026-10.977c-0.815,3.452-1.389,5.88-2.012,8.517
			c-0.855,0.115-1.653,0.332-2.447,0.314c-13.947-0.314-12.165-1.12-12.706-12.09c-0.371-7.532-0.071-15.097-0.071-21.967
			c13.262,3.133,25.198,6.685,37.39,8.684c27.587,4.524,54.579,1.225,79.643-11.099c17.947-8.825,34.825-19.831,52.129-29.951
			c31.393-18.361,63.382-35.473,98.174-46.654c20.956-6.735,42.444-10.753,64.437-12.04c2.779-0.163,4.645,0.111,5.479,3.416
			C682.261,530.238,681.805,549.844,678.402,569.574z"/>
		<path fill="#32231D" d="M196.725,502.593c3.371,0,6.301,0,9.394,0c1.542,7.353,3.055,14.567,4.567,21.781
			c0.285-0.014,0.57-0.027,0.856-0.041c1.869-7.161,3.738-14.321,5.668-21.713c2.286,0,4.575,0,7.457,0
			c1.885,7.007,3.837,14.261,5.789,21.514c0.258,0.027,0.516,0.053,0.774,0.08c1.496-7.074,2.992-14.148,4.55-21.517
			c2.959,0,5.877,0,9.388,0c-1.755,6.649-3.476,13.17-5.197,19.691c-1.061,4.021-2.161,8.033-3.171,12.067
			c-0.741,2.962-1.239,5.402-5.566,5.306c-4.096-0.091-4.933-1.927-5.625-5.226c-1.157-5.52-2.752-10.949-5.073-16.602
			c-1.488,5.779-3.209,11.511-4.371,17.355c-0.642,3.23-1.895,4.428-5.238,4.384c-3.085-0.041-4.72-0.645-5.534-4.019
			C202.748,524.685,199.701,513.814,196.725,502.593z"/>
		<path fill="#32231D" d="M511.217,215.638c3.208,0,5.814,0,8.633,0c0,12.172,0,24.079,0,36.091
			c-5.543,1.29-9.707,0.749-12.65-5.129c-2.779-5.552-6.863-10.451-11.12-16.742c0,8.094,0,14.941,0,22.061c-3.088,0-5.69,0-8.653,0
			c0-11.947,0-23.98,0-36.133c5.495-1.36,9.561-0.468,12.516,5.215c2.955,5.682,7.061,10.765,11.272,17.018
			C511.217,229.938,511.217,222.952,511.217,215.638z"/>
		<path fill="#32231D" d="M786.119,509.943c0,2.502,0,4.26,0,6.463c5.277,0,10.357,0,15.775,0c0,2.681,0,4.922,0,7.61
			c-5.054,0-10.138,0-15.611,0c0,2.798,0,5.167,0,7.928c5.947,0,11.874,0,18.202,0c0,2.727,0,5.078,0,7.434
			c-9.014,0-17.922,0-27.119,0c0-12.347,0-24.391,0-36.722c8.809,0,17.528,0,26.564,0c0,2.394,0,4.642,0,7.287
			C798.122,509.943,792.367,509.943,786.119,509.943z"/>
		<path fill="#32231D" d="M327.474,632.666c0.723,2.532,1.936,5.054,1.988,7.599c0.032,1.588-1.691,3.211-2.626,4.818
			c-1.057-1.208-2.245-2.33-3.127-3.655c-0.598-0.899-0.768-2.083-1.347-3.775c-2.034,5.614-4.625,3.523-7.061,1.037
			c-1.384-1.412-2.628-3.006-3.701-4.669c-4.137-6.412-3.441-7.984,3.88-9.127c-1.233-7.817,1.235-15.106,5.403-15.956
			c3.313-0.675,12.102,5.613,12.789,9.149c0.717,3.695-3.726,6.634-14.387,9.417c0.729,1.81,1.447,3.592,2.101,5.217
			c2.124,0,4.112,0,6.1,0L327.474,632.666z"/>
		<path fill="#32231D" d="M531.363,386.025c4.462-0.067,9.755,5.022,9.912,9.531c0.16,4.586-5.319,10.131-9.928,10.046
			c-4.456-0.082-9.648-5.363-9.648-9.814C521.699,391.294,526.847,386.093,531.363,386.025z"/>
		<path fill="#32231D" d="M628.084,611.133c-0.049,4.964-2.42,7.266-7.38,7.163c-5.49-0.114-11.268-5.029-10.806-9.606
			c0.599-5.92,5.717-4.688,9.292-4.891C626.307,603.396,628.143,605.201,628.084,611.133z"/>
		<path fill="#32231D" d="M690.75,624.451c-2.813-1.368-6.187-1.986-6.682-3.528c-0.536-1.671,1.191-4.561,2.667-6.292
			c4.194-4.922,9.608-5.275,15.032-1.551c2.787,1.914,2.909,4.494,0.448,6.068C698.73,621.377,694.664,622.698,690.75,624.451z"/>
		<path fill="#32231D" d="M636.407,595.268c4.142,1.467,8.42,2.642,12.386,4.488c3.522,1.639,3.323,3.533-0.146,5.481
			c-0.714,0.401-1.481,0.969-2.237,0.992c-3.462,0.104-7.9,1.324-10.102-0.345c-1.941-1.471-1.385-6.235-1.932-9.545
			C635.052,595.982,635.729,595.625,636.407,595.268z"/>
		<path fill="#32231D" d="M657.639,623.185c4.391-7.061,11.549-9.961,17.213-7.403c1.115,0.504,2.58,1.521,2.735,2.487
			c0.144,0.898-1.013,2.419-1.994,3.017C670.104,624.631,664.287,625.473,657.639,623.185z"/>
		<path fill="#32231D" d="M297.168,635.198c1.674-2.644,2.781-6.283,5.182-7.647c2.348-1.334,6.756,5.604,6.617,10.095
			c-0.093,3.005-1.501,4.781-4.567,4.487c-3.658-0.351-7.079-1.252-6.024-6.355C297.972,635.584,297.57,635.391,297.168,635.198z"/>
		<path fill="#32231D" d="M696.016,606.106c5.051-10.011,7.486-8.622,14.897-1.814C706.937,608.328,701.803,609.032,696.016,606.106
			z"/>
		<path fill="#32231D" d="M310.812,612.688c0.311,3.221,0.658,6.44,0.779,9.668c0.004,0.115-2.73,0.892-3.349,0.369
			c-2.179-1.844-3.991-4.12-5.942-6.233c2.078-1.575,4.156-3.149,6.234-4.724C309.293,612.075,310.053,612.382,310.812,612.688z"/>
		<path fill="#32231D" d="M688.015,560.189c0.004-4.328,3.569-8.078,6.354-7.598c0.952,0.164,2.522,2.477,2.296,2.826
			c-1.785,2.751-3.936,5.264-5.974,7.85C689.567,561.975,688.444,560.682,688.015,560.189z"/>
		<path fill="#32231D" d="M668.364,605.715c-2.326,2.054-4.531,4.281-7.051,6.061c-0.778,0.549-3.196,0.272-3.491-0.316
			c-0.545-1.086-0.608-3.072,0.068-3.99c2.275-3.088,5.427-4.455,9.153-3.697C667.483,604.421,667.923,605.068,668.364,605.715z"/>
		<path fill="#32231D" d="M658.35,615.731c-1.923,2.198-3.576,4.768-5.881,6.439c-1.156,0.838-3.498,0.041-5.304-0.017
			c0.747-1.755,1.02-4.227,2.347-5.103c2.206-1.457,5.089-1.889,7.686-2.753C657.582,614.775,657.966,615.253,658.35,615.731z"/>
		<path fill="#32231D" d="M700.935,578.518c-2.522,1.72-4.491,3.759-5.178,3.393c-1.7-0.906-3.664-2.801-3.89-4.514
			c-0.175-1.325,2.121-2.975,3.319-4.481C696.786,574.475,698.386,576.034,700.935,578.518z"/>
		<path fill="#32231D" d="M692.906,603.028c-2.354,1.952-4.181,4.194-4.857,3.888c-1.762-0.796-3.892-2.547-4.204-4.228
			c-0.252-1.357,1.932-3.166,3.035-4.774C688.57,599.348,690.259,600.782,692.906,603.028z"/>
		<path fill="#32231D" d="M654.813,609.932c-1.935,3.561-4.032,6.45-8.185,4.352c-0.833-0.421-1.212-3.772-0.473-4.911
			C648.763,605.351,651.684,607.246,654.813,609.932z"/>
		<path fill="#32231D" d="M630.81,614.478c3.621,2.155,6.403,4.306,4.269,8.16c-0.604,1.091-4.065,1.976-4.949,1.3
			C626.194,620.93,629.23,617.923,630.81,614.478z"/>
		<path fill="#32231D" d="M714.062,563.815c-2.688,1.479-4.498,3.303-6.02,3.087c-1.655-0.234-3.042-2.363-4.546-3.665
			c1.974-1.229,3.832-2.919,5.98-3.464C710.357,559.55,711.865,561.797,714.062,563.815z"/>
		<path fill="#32231D" d="M665.291,593.858c-0.244,8.822-3.441,10.42-11.323,6.084C657.915,597.821,661.13,596.094,665.291,593.858z
			"/>
		<path fill="#32231D" d="M327.486,632.721c0.69-1.082,1.173-2.425,2.123-3.179c1.155-0.917,2.766-1.908,4.062-1.769
			c0.861,0.092,2.399,2.579,2.086,3.167c-0.732,1.37-2.274,2.837-3.723,3.138c-1.363,0.283-3.026-0.878-4.559-1.407
			C327.474,632.666,327.486,632.721,327.486,632.721z"/>
		<path fill="#32231D" d="M297.713,619.85c0,1.94,0,3.881,0,7.64c-2.764-1.828-4.65-3.075-6.536-4.323
			c1.737-1.508,3.474-3.017,5.211-4.525C296.83,619.045,297.272,619.448,297.713,619.85z"/>
		<path fill="#32231D" d="M309.916,610.476c-2.101-2.103-3.516-3.518-4.93-4.934c1.159-0.983,2.665-2.989,3.404-2.738
			c1.586,0.539,3.052,2.073,3.972,3.566C312.667,606.864,311.152,608.481,309.916,610.476z"/>
		<path fill="#32231D" d="M710.784,549.148c-1.894,0.483-3.789,0.966-5.683,1.45c-0.15-0.995-0.614-2.774-0.399-2.86
			c1.71-0.685,3.55-1.05,5.349-1.513C710.295,547.199,710.539,548.174,710.784,549.148z"/>
		<path fill="#32231D" d="M675.148,611.342c1.014-1.725,2.027-3.451,3.041-5.176c0.471,0.019,0.942,0.038,1.412,0.057
			c0.347,1.505,1.414,3.421,0.852,4.407c-0.647,1.134-2.736,1.446-4.198,2.115C675.886,612.277,675.517,611.809,675.148,611.342z"/>
		<path fill="#32231D" d="M686.137,572.234c1.039-1.693,2.078-3.386,3.118-5.079c0.483,0.039,0.965,0.077,1.448,0.116
			c0.296,1.517,1.294,3.456,0.702,4.439c-0.668,1.11-2.765,1.361-4.24,1.986C686.823,573.209,686.48,572.722,686.137,572.234z"/>
		<path fill="#32231D" d="M695.838,564.387c1.756,1.015,3.512,2.029,5.267,3.044c-0.018,0.483-0.035,0.965-0.053,1.448
			c-1.509,0.347-3.439,1.419-4.418,0.852c-1.147-0.665-1.465-2.758-2.143-4.231C694.941,565.129,695.389,564.758,695.838,564.387z"
			/>
		<path fill="#32231D" d="M636.147,616.326c1.017-1.72,2.034-3.44,3.05-5.16c0.473,0.021,0.946,0.043,1.419,0.064
			c0.339,1.506,1.392,3.417,0.829,4.411c-0.638,1.125-2.726,1.428-4.184,2.089C636.889,617.262,636.518,616.794,636.147,616.326z"/>
		<path fill="#32231D" d="M289.461,634.295c1.857,0.158,3.759,0.147,5.53,0.624c0.333,0.09,0.141,2.126,0.192,3.264
			c-2.04-0.419-4.081-0.837-6.121-1.256C289.194,636.05,289.328,635.173,289.461,634.295z"/>
	</g>
</g>
</svg>
